<svg width="67" height="67" viewBox="0 0 67 67" fill="none" xmlns="http://www.w3.org/2000/svg">
<g clip-path="url(#clip0)">
<path d="M33.499 0.000976562C24.9159 0.000976562 16.3334 3.26696 9.80014 9.80018C-3.26821 22.8685 -3.26694 44.1309 9.8014 57.1999C16.334 63.7337 24.9165 66.9997 33.499 66.9997C42.0816 66.9997 50.6641 63.7325 57.1992 57.1961C70.2669 44.1296 70.2657 22.8692 57.2005 9.80334C50.6647 3.26822 42.0816 0.000976562 33.499 0.000976562ZM53.5428 53.5429C48.0166 59.0691 40.7581 61.8316 33.499 61.8329C26.2406 61.8329 18.9822 59.0704 13.4559 53.5454C12.0737 52.1632 10.8652 50.673 9.8292 49.1025C2.57582 38.1037 3.78556 23.1269 13.4559 13.4559C18.9822 7.9303 26.2406 5.1678 33.499 5.1678C40.7575 5.1678 48.0159 7.9303 53.5428 13.4566C64.5954 24.5085 64.5941 42.4922 53.5428 53.5429ZM15.5955 33.0474C14.8299 32.3317 14.7907 31.1314 15.5058 30.3651C16.2209 29.5989 17.4123 29.5496 18.1887 30.2748C20.2424 32.2034 22.3511 30.4277 22.5848 30.2192C23.2829 29.5938 24.3164 29.5799 25.0277 30.144C25.1117 30.2097 25.1913 30.2849 25.2652 30.3677C25.9639 31.1485 25.8976 32.3481 25.1168 33.0474C23.4339 34.5541 19.2999 36.5124 15.5955 33.0474ZM51.4859 30.3455C52.184 31.1263 52.1183 32.326 51.3375 33.0253C49.6546 34.5319 45.5206 36.4896 41.8162 33.0253C41.0506 32.3096 41.0121 31.1093 41.7265 30.343C42.441 29.5767 43.6331 29.5275 44.4094 30.2527C46.4632 32.1813 48.5718 30.4056 48.8056 30.1971C49.503 29.5717 50.5371 29.5578 51.2484 30.1219C51.3324 30.1876 51.4114 30.2628 51.4859 30.3455ZM48.6527 50.1164C49.0684 51.0773 48.6268 52.1929 47.6653 52.6085C46.7051 53.0255 45.5908 52.5826 45.1751 51.6212C43.3463 47.3962 39.0278 44.6641 34.1693 44.6641C29.1996 44.6641 24.854 47.3931 23.0997 51.6174C22.7971 52.3445 22.0915 52.7861 21.3492 52.7861C21.1073 52.7861 20.8609 52.7399 20.6234 52.6414C19.6568 52.239 19.1988 51.1297 19.6 50.1638C21.9443 44.5207 27.6632 40.8757 34.1699 40.8757C40.5402 40.875 46.2256 44.5023 48.6527 50.1164Z" fill="#F35B3A"/>
</g>
<defs>
<clipPath id="clip0">
<rect width="67" height="67" fill="white"/>
</clipPath>
</defs>
</svg>
