<svg width="519" height="519" viewBox="0 0 519 519" fill="none" xmlns="http://www.w3.org/2000/svg">
<g clip-path="url(#clip0)">
<path d="M250.071 517.505C364.456 517.505 457.184 424.777 457.184 310.392C457.184 196.007 364.456 103.28 250.071 103.28C135.686 103.28 42.9587 196.007 42.9587 310.392C42.9587 424.777 135.686 517.505 250.071 517.505Z" fill="#8BB6EF"/>
<path d="M250.071 517.505C267.369 517.505 284.165 515.371 300.226 511.377C256.501 445.767 186.623 455.166 172.927 443.753C152.528 426.753 187.82 393.573 163.62 377.44C133.815 357.571 76.6509 385.516 60.5881 394.104C92.7445 466.785 165.48 517.505 250.071 517.505Z" fill="#78EAC4"/>
<path d="M74.6464 200.269C54.6635 232.034 43.0637 269.6 42.9651 309.876C115.116 303.432 152.928 287.847 152.928 253.396C152.928 222.748 91.2236 204.593 74.6464 200.269Z" fill="#78EAC4"/>
<path d="M300.867 109.565C278.784 120.863 216.37 156.753 229.969 195.355C238.546 219.701 259.567 220.8 274.826 224.008C298.079 228.896 297.25 250.313 287.113 264.36C280.486 273.542 263.823 312.56 267.938 333.574C279.312 391.649 394.479 378.639 452.197 355.706C455.453 341.121 457.183 325.96 457.183 310.393C457.184 213.534 390.691 132.214 300.867 109.565Z" fill="#78EAC4"/>
<path d="M250.071 103.28C243.755 103.28 237.511 103.579 231.338 104.132C250.227 106.011 268.213 110.958 284.789 118.471C352.15 137.378 395.529 204.516 395.529 273.912C395.529 311.496 377.872 352.993 352.778 375.091C321.652 417.906 271.171 445.739 214.188 445.739C198.662 445.739 183.619 443.673 169.318 439.8C150.556 437.606 131.117 431.14 115.446 420.357C102.39 411.372 89.6475 397.154 82.3463 383.77C61.1778 358.254 47.2754 326.492 43.8104 291.659C43.2567 297.83 42.9576 304.076 42.9576 310.392C42.9576 340.186 49.2481 368.509 60.5743 394.108C102.136 461.065 165.48 512.643 250.071 512.643C267.368 512.643 300.229 511.389 300.229 511.389C375.926 492.561 435.163 432.091 452.211 355.709C452.211 355.709 449.514 325.959 449.514 310.392C449.514 213.534 386.172 137.377 300.87 109.555C284.615 105.457 267.598 103.28 250.071 103.28Z" fill="#8388EF"/>
<path d="M300.226 511.377C256.501 445.767 186.623 455.166 172.927 443.752C171.442 442.515 170.26 441.189 169.32 439.793C134.773 430.438 104.565 410.541 82.3527 383.766C72.8645 387.746 65.102 391.69 60.587 394.103C92.7445 466.785 165.479 517.505 250.07 517.505C267.369 517.505 284.164 515.371 300.226 511.377Z" fill="#71AFC4"/>
<path d="M452.198 355.705C455.454 341.12 457.184 325.959 457.184 310.392C457.184 213.534 390.692 132.214 300.868 109.565C296.69 111.703 291.067 114.721 284.79 118.471C344.135 145.363 385.418 205.113 385.418 274.509C385.418 312.094 373.299 346.843 352.768 375.083C387.67 374.542 425.897 366.156 452.198 355.705Z" fill="#71AFC4"/>
<path d="M141.345 195.753C138.566 195.753 135.79 194.668 133.709 192.508C129.643 188.291 129.765 181.578 133.982 177.511C160.182 152.247 188.128 142.74 189.305 142.349C194.86 140.498 200.868 143.5 202.721 149.057C204.571 154.609 201.575 160.609 196.029 162.468C195.513 162.644 171.163 171.126 148.706 192.781C146.648 194.766 143.994 195.753 141.345 195.753Z" fill="white"/>
<path d="M371.509 248.164C367.994 248.164 365.146 245.315 365.146 241.801V229.783C365.146 226.268 367.994 223.419 371.509 223.419C375.023 223.419 377.873 226.268 377.873 229.783V241.801C377.873 245.316 375.023 248.164 371.509 248.164Z" fill="#518699"/>
<path d="M345.788 334.019C342.273 334.019 339.424 331.171 339.424 327.656V315.639C339.424 312.125 342.273 309.275 345.788 309.275C349.302 309.275 352.151 312.125 352.151 315.639V327.656C352.151 331.171 349.301 334.019 345.788 334.019Z" fill="#518699"/>
<path d="M392.536 308.618C389.021 308.618 386.172 305.769 386.172 302.254V290.236C386.172 286.722 389.021 283.873 392.536 283.873C396.05 283.873 398.899 286.722 398.899 290.236V302.254C398.899 305.768 396.05 308.618 392.536 308.618Z" fill="#518699"/>
<path d="M41.6414 53.9054L50.3532 78.4032C50.7266 79.4521 51.4648 80.2837 52.397 80.7026L74.1617 90.5089C77.2364 91.8941 77.2364 96.793 74.1617 98.1792L52.397 107.986C51.4648 108.406 50.7266 109.237 50.3532 110.285L41.6414 134.783C40.4111 138.244 36.0574 138.244 34.8271 134.783L26.1153 110.285C25.7419 109.236 25.0037 108.405 24.0715 107.986L2.30577 98.1782C-0.768917 96.793 -0.768917 91.8941 2.30577 90.5079L24.0704 80.7015C25.0027 80.2815 25.7409 79.45 26.1142 78.4021L34.826 53.9043C36.0574 50.4446 40.4101 50.4446 41.6414 53.9054Z" fill="#BDF4E3"/>
<path d="M436.105 3.42164L442.568 21.593C442.844 22.3714 443.392 22.9877 444.083 23.2995L460.228 30.5731C462.509 31.6008 462.509 35.2344 460.228 36.2622L444.083 43.5358C443.392 43.8476 442.844 44.4638 442.568 45.2423L436.105 63.4136C435.192 65.9813 431.964 65.9813 431.051 63.4136L424.588 45.2423C424.311 44.4638 423.764 43.8476 423.073 43.5358L406.928 36.2622C404.648 35.2344 404.648 31.6008 406.928 30.5731L423.073 23.2995C423.764 22.9877 424.311 22.3714 424.588 21.593L431.051 3.42164C431.964 0.853919 435.192 0.853919 436.105 3.42164Z" fill="#BDF4E3"/>
<path d="M518.573 157.199C520.989 146.976 514.661 136.73 504.438 134.313C494.215 131.896 483.969 138.225 481.552 148.448C479.135 158.671 485.464 168.917 495.687 171.334C505.91 173.75 516.156 167.422 518.573 157.199Z" fill="#78EAC4"/>
<path d="M168.854 42.7393C173.386 42.7393 177.06 39.0654 177.06 34.5334C177.06 30.0014 173.386 26.3275 168.854 26.3275C164.322 26.3275 160.649 30.0014 160.649 34.5334C160.649 39.0654 164.322 42.7393 168.854 42.7393Z" fill="#78EAC4"/>
</g>
<defs>
<clipPath id="clip0">
<rect width="519" height="519" fill="white"/>
</clipPath>
</defs>
</svg>
