<svg width="67" height="67" viewBox="0 0 67 67" fill="none" xmlns="http://www.w3.org/2000/svg">
<g clip-path="url(#clip0)">
<path d="M57.2001 9.80293C44.131 -3.26744 22.8678 -3.26744 9.8012 9.79977C-3.26791 22.867 -3.26664 44.1308 9.80246 57.2005C22.8678 70.2671 44.131 70.2671 57.1988 57.198C70.2666 44.1308 70.266 22.8682 57.2001 9.80293ZM53.543 53.5435C42.4916 64.5949 24.509 64.5961 13.457 53.5448C2.40308 42.4915 2.40434 24.5069 13.457 13.4556C24.5084 2.40481 42.4904 2.40354 53.5443 13.4568C64.5957 24.5082 64.5944 42.4927 53.543 53.5435ZM20.9985 24.4292C20.9985 22.2662 22.7528 20.5119 24.9158 20.5119C27.0782 20.5119 28.8325 22.2656 28.8325 24.4292C28.8325 26.5935 27.0782 28.3472 24.9158 28.3472C22.7528 28.3472 20.9985 26.5935 20.9985 24.4292ZM38.7607 24.4292C38.7607 22.2662 40.5162 20.5119 42.6793 20.5119C44.8417 20.5119 46.596 22.2656 46.596 24.4292C46.596 26.5935 44.8423 28.3472 42.6793 28.3472C40.5162 28.3472 38.7607 26.5935 38.7607 24.4292ZM48.0217 40.4731C45.594 46.0872 39.9085 49.7146 33.5382 49.7146C27.0308 49.7146 21.3118 46.0689 18.9681 40.4264C18.5664 39.4605 19.0244 38.3512 19.9915 37.9494C20.2291 37.8515 20.4754 37.8047 20.718 37.8047C21.4609 37.8047 22.1659 38.2438 22.4685 38.9734C24.2228 43.1971 28.5678 45.9249 33.5382 45.9249C38.3962 45.9249 42.7159 43.1952 44.5428 38.969C44.9585 38.0081 46.0741 37.5653 47.0344 37.9816C47.9946 38.3979 48.4374 39.5129 48.0217 40.4731Z" fill="#1EBB90"/>
</g>
<defs>
<clipPath id="clip0">
<rect width="67" height="67" fill="white"/>
</clipPath>
</defs>
</svg>
