<svg width="78" height="78" viewBox="0 0 78 78" fill="none" xmlns="http://www.w3.org/2000/svg">
<path d="M31.3586 11.1831C24.5443 4.37227 11.2096 3.58252 1.77093 3.58252C0.793408 3.58252 0 4.37576 0 5.35328C0 14.792 0.786269 28.1267 7.60054 34.9411C10.4765 37.8171 14.886 39.1028 19.2564 39.1028C24.0059 39.1028 28.7129 37.5833 31.3586 34.9377C36.434 29.8623 37.3655 17.1863 31.3586 11.1831ZM28.8547 32.4371C25.065 36.2231 14.5425 36.8713 10.1083 32.4371C4.60787 26.9368 3.65509 15.7626 3.55232 7.13484C12.18 7.23761 23.3543 8.19023 28.8545 13.6906C33.2889 18.1248 32.6408 28.651 28.8547 32.4371Z" fill="#1EBB90"/>
<path d="M76.2291 10.5881C66.7904 10.5881 53.4557 11.3744 46.6412 18.1887C40.6345 24.1919 41.5659 36.8679 46.6412 41.9433C49.2869 44.5855 53.9904 46.1049 58.7399 46.1049C63.1104 46.1049 67.5164 44.8227 70.3993 41.9469C77.2101 35.1326 77.9999 21.7979 77.9999 12.3591C78 11.3815 77.2066 10.5881 76.2291 10.5881ZM67.8883 39.4392C63.4541 43.8734 52.9279 43.2253 49.1418 39.4392C45.3558 35.6531 44.7076 25.127 49.1418 20.6928C54.6422 15.1924 65.8164 14.2397 74.4441 14.137C74.3415 22.7682 73.3887 33.9424 67.8883 39.4392Z" fill="#1EBB90"/>
<path d="M63.4399 25.9168C63.022 25.0277 61.8249 24.7232 60.943 25.134C47.3604 31.5198 40.6878 42.655 37.6559 54.1019C33.9052 29.7629 23.0568 22.343 18.4561 19.1945C17.8823 18.8013 17.436 18.5144 17.1882 18.2701C16.4975 17.5794 15.3747 17.5794 14.6841 18.2701C13.9935 18.9607 13.9935 20.0835 14.6841 20.7741C15.0347 21.1213 15.6404 21.5569 16.4585 22.1164C21.6436 25.6617 35.4175 35.0863 35.4175 72.6466C35.4175 73.6242 36.2109 74.4176 37.1884 74.4176C38.1659 74.4176 38.9593 73.6242 38.9593 72.6503C38.9593 57.4739 43.0359 37.4666 62.4518 28.343C62.4518 28.3395 62.7387 28.2048 62.7387 28.2048C63.6205 27.7868 63.8578 26.8021 63.4399 25.9168Z" fill="#1EBB90"/>
</svg>
