<svg width="67" height="67" viewBox="0 0 67 67" fill="none" xmlns="http://www.w3.org/2000/svg">
<g clip-path="url(#clip0)">
<path d="M57.1991 57.1976C70.267 44.1304 70.2657 22.8685 57.2004 9.80317C44.13 -3.2672 22.8668 -3.2672 9.80023 9.80001C-3.26824 22.8672 -3.26697 44.131 9.8015 57.2008C22.8668 70.2667 44.13 70.2667 57.1991 57.1976ZM13.456 13.4558C24.5068 2.40505 42.4901 2.40379 53.544 13.4571C64.5953 24.5084 64.5941 42.4924 53.5427 53.5431C42.4913 64.5945 24.5074 64.5957 13.456 53.5444C2.40212 42.4917 2.40338 24.5072 13.456 13.4558Z" fill="#F0BF41"/>
<path d="M47.7829 44.871C47.7829 43.6574 46.7981 42.6738 45.5852 42.6738H21.416C20.2025 42.6738 19.2183 43.6574 19.2183 44.871C19.2183 46.0845 20.2025 47.0687 21.416 47.0687H45.5852C46.7987 47.0687 47.7829 46.0845 47.7829 44.871Z" fill="#F0BF41"/>
<path d="M20.0349 29.7601C20.2112 29.8422 20.4278 29.8169 20.5769 29.6969L26.7413 24.8345C26.8632 24.7372 26.9333 24.5894 26.9333 24.4296C26.9333 24.2697 26.8638 24.1225 26.7388 24.0215L20.5763 19.1604C20.4853 19.0896 20.3716 19.0498 20.256 19.0498C20.1789 19.0498 20.1006 19.0669 20.0299 19.1016C19.8536 19.1869 19.7393 19.3701 19.7393 19.5678V21.8123C19.7393 21.9273 19.7923 22.0341 19.8814 22.1042L22.8278 24.4302L19.8814 26.7549C19.7923 26.8257 19.7393 26.9331 19.7393 27.0474V29.2926C19.7393 29.4903 19.8492 29.6691 20.0349 29.7601Z" fill="#F0BF41"/>
<path d="M46.3875 29.6973C46.4778 29.7681 46.5915 29.8079 46.7071 29.8079C46.7842 29.8079 46.8625 29.7908 46.9339 29.7561C47.1095 29.6708 47.2239 29.4876 47.2239 29.2899V27.046C47.2239 26.9316 47.1714 26.8249 47.0811 26.7541L44.1347 24.4288L47.0811 22.1034C47.1714 22.0333 47.2239 21.9252 47.2239 21.8109V19.5657C47.2239 19.368 47.1133 19.1892 46.9282 19.0976C46.7526 19.0155 46.5353 19.0408 46.3862 19.1608L40.2231 24.0238C40.1012 24.1211 40.0298 24.2696 40.0298 24.4294C40.0298 24.5892 40.0999 24.7358 40.2256 24.8368L46.3875 29.6973Z" fill="#F0BF41"/>
</g>
<defs>
<clipPath id="clip0">
<rect width="67" height="67" fill="white"/>
</clipPath>
</defs>
</svg>
