<svg width="221" height="221" viewBox="0 0 221 221" fill="none" xmlns="http://www.w3.org/2000/svg">
<path d="M34.4535 19.0352H186.736C195.112 19.0352 201.964 25.8871 201.964 34.2634V186.546C201.964 194.922 195.112 201.774 186.736 201.774H34.4535C26.0791 201.774 19.2253 194.922 19.2253 186.546V34.2634C19.2253 25.8871 26.0791 19.0352 34.4535 19.0352Z" fill="#E9E9E9"/>
<path d="M152.473 76.1413C152.473 118.194 118.384 152.283 76.3313 152.283C34.2807 152.283 0.190002 118.194 0.190002 76.1413C0.190002 34.0888 34.2807 0 76.3313 0C118.384 0 152.473 34.0888 152.473 76.1413Z" fill="#239172"/>
<path d="M137.244 76.141C137.244 109.782 109.972 137.054 76.3312 137.054C42.6904 137.054 15.4182 109.782 15.4182 76.141C15.4182 42.5002 42.6904 15.228 76.3312 15.228C109.972 15.228 137.244 42.5002 137.244 76.141Z" fill="#2AB793"/>
<path d="M34.4536 76.1411C55.7735 99.3646 91.5595 100.887 114.783 79.5671C115.924 78.4257 117.068 77.2825 118.209 76.1411C96.889 52.9177 61.103 51.3952 37.8795 72.7151C36.7382 73.8565 35.5968 74.9998 34.4536 76.1411Z" fill="#E9E9E9"/>
<path d="M156.28 34.2637H190.543V41.8778H156.28V34.2637Z" fill="#C4C4C4"/>
<path d="M163.894 53.2988H190.543V60.913H163.894V53.2988Z" fill="#C4C4C4"/>
<path d="M163.894 72.334H190.543V79.9481H163.894V72.334Z" fill="#C4C4C4"/>
<path d="M163.894 91.3701H190.543V98.9842H163.894V91.3701Z" fill="#C4C4C4"/>
<path d="M163.894 110.405H190.543V118.019H163.894V110.405Z" fill="#C4C4C4"/>
<path d="M167.701 129.44H190.543V137.055H167.701V129.44Z" fill="#C4C4C4"/>
<path d="M30.6465 163.704H133.437V171.318H30.6465V163.704Z" fill="#C4C4C4"/>
<path d="M30.6465 178.932H148.665V186.546H30.6465V178.932Z" fill="#C4C4C4"/>
<path d="M49.6818 106.598H102.981V114.212H49.6818V106.598Z" fill="#239172"/>
<path d="M49.6818 38.0703H102.981V45.6844H49.6818V38.0703Z" fill="#239172"/>
<path d="M137.244 121.827L167.701 156.09H172.27C174.174 156.09 176.077 156.852 177.599 158.375L217.193 197.968C219.858 200.634 221 204.06 221 207.486C221 215.1 214.908 220.81 207.675 220.81C204.249 220.81 200.823 219.288 198.157 217.003L158.564 177.41C157.042 175.888 156.28 173.984 156.28 172.081V167.511L125.823 133.248" fill="#3F3F3F"/>
<path d="M87.7524 76.1414C87.7524 82.4487 82.6385 87.5626 76.3312 87.5626C70.0239 87.5626 64.91 82.4487 64.91 76.1414C64.91 69.8341 70.0239 64.7202 76.3312 64.7202C82.6385 64.7202 87.7524 69.8341 87.7524 76.1414Z" fill="#4A4A56"/>
<path d="M221 207.485C221 204.059 219.477 200.633 217.193 197.968L177.599 158.374C176.077 156.852 174.173 156.09 172.27 156.09H167.701L156.28 167.511V172.08C156.28 173.984 157.042 175.887 158.564 177.41L198.157 217.003C203.487 222.332 211.863 222.332 217.193 217.003C219.477 214.337 221 210.911 221 207.485Z" fill="#2B2B2B"/>
</svg>
